<svg width="247" height="58" viewBox="0 0 247 58" fill="none" xmlns="http://www.w3.org/2000/svg">
<path d="M22.9623 50.2237L0 56.3764V18.4117L9.69754 14.5941V5.31165L22.9623 0L37.6249 5.68618V31.0344L45.9246 34.1505V56.3764L22.9623 50.2237Z" fill="#598D71"/>
<path d="M22.9624 0.00509644V50.1624L0.0136719 56.3764V18.3755L9.69629 14.5953V5.31063L22.9624 0.00509644Z" fill="#708D59"/>
<path d="M63.2384 56.5564C62.7384 56.5564 62.3224 56.4684 61.9904 56.2924C61.6624 56.1164 61.4164 55.8844 61.2524 55.5964C61.0884 55.3044 61.0064 54.9884 61.0064 54.6484C61.0064 54.2804 61.0824 53.9724 61.2344 53.7244C61.3904 53.4764 61.5964 53.2764 61.8524 53.1244C62.1124 52.9724 62.3984 52.8584 62.7104 52.7824C63.0664 52.7024 63.4504 52.6344 63.8624 52.5784C64.2744 52.5184 64.6664 52.4664 65.0384 52.4224C65.4144 52.3784 65.7204 52.3404 65.9564 52.3084L65.7044 52.4584C65.7204 51.7584 65.5884 51.2384 65.3084 50.8984C65.0324 50.5544 64.5444 50.3824 63.8444 50.3824C63.3524 50.3824 62.9464 50.4944 62.6264 50.7184C62.3104 50.9384 62.0884 51.2804 61.9604 51.7444L61.2524 51.5464C61.4004 50.9584 61.6984 50.5064 62.1464 50.1904C62.5944 49.8744 63.1684 49.7164 63.8684 49.7164C64.4644 49.7164 64.9644 49.8324 65.3684 50.0644C65.7764 50.2964 66.0604 50.6224 66.2204 51.0424C66.2884 51.2144 66.3344 51.4164 66.3584 51.6484C66.3824 51.8764 66.3944 52.1064 66.3944 52.3384V56.3764H65.7644V54.6724L65.9984 54.7324C65.8024 55.3164 65.4604 55.7664 64.9724 56.0824C64.4844 56.3984 63.9064 56.5564 63.2384 56.5564ZM63.2744 55.9204C63.7144 55.9204 64.1004 55.8424 64.4324 55.6864C64.7644 55.5264 65.0324 55.3044 65.2364 55.0204C65.4444 54.7324 65.5764 54.3944 65.6324 54.0064C65.6724 53.7904 65.6944 53.5564 65.6984 53.3044C65.7024 53.0524 65.7044 52.8664 65.7044 52.7464L66.0044 52.9384C65.7444 52.9704 65.4324 53.0044 65.0684 53.0404C64.7084 53.0764 64.3404 53.1204 63.9644 53.1724C63.5884 53.2244 63.2484 53.2904 62.9444 53.3704C62.7564 53.4224 62.5664 53.4984 62.3744 53.5984C62.1864 53.6944 62.0284 53.8284 61.9004 54.0004C61.7764 54.1724 61.7144 54.3904 61.7144 54.6544C61.7144 54.8504 61.7624 55.0464 61.8584 55.2424C61.9584 55.4384 62.1224 55.6004 62.3504 55.7284C62.5784 55.8564 62.8864 55.9204 63.2744 55.9204ZM67.9523 56.3764V49.8964H72.3323V50.5684H68.6423V56.3764H67.9523ZM76.1418 56.5564C75.5218 56.5564 74.9858 56.4184 74.5338 56.1424C74.0818 55.8624 73.7318 55.4684 73.4838 54.9604C73.2358 54.4484 73.1118 53.8444 73.1118 53.1484C73.1118 52.4404 73.2338 51.8304 73.4778 51.3184C73.7258 50.8024 74.0738 50.4064 74.5218 50.1304C74.9738 49.8544 75.5098 49.7164 76.1298 49.7164C76.7578 49.7164 77.2938 49.8604 77.7378 50.1484C78.1858 50.4324 78.5258 50.8444 78.7578 51.3844C78.9938 51.9244 79.1058 52.5744 79.0938 53.3344H78.3738V53.0944C78.3538 52.2064 78.1538 51.5304 77.7738 51.0664C77.3938 50.6024 76.8498 50.3704 76.1418 50.3704C75.4098 50.3704 74.8438 50.6124 74.4438 51.0964C74.0478 51.5764 73.8498 52.2564 73.8498 53.1364C73.8498 54.0084 74.0478 54.6844 74.4438 55.1644C74.8438 55.6444 75.4058 55.8844 76.1298 55.8844C76.6298 55.8844 77.0658 55.7684 77.4378 55.5364C77.8138 55.3004 78.1118 54.9644 78.3318 54.5284L78.9558 54.8044C78.6958 55.3644 78.3198 55.7964 77.8278 56.1004C77.3358 56.4044 76.7738 56.5564 76.1418 56.5564ZM73.5858 53.3344V52.7104H78.7038V53.3344H73.5858ZM80.4211 56.3764V49.8964H81.1111V52.8004H85.0171V49.8964H85.7071V56.3764H85.0171V53.4724H81.1111V56.3764H80.4211ZM89.188 56.3764V50.5564H86.842V49.8964H92.224V50.5564H89.878V56.3764H89.188ZM95.8874 56.5564C95.2394 56.5564 94.6934 56.4124 94.2494 56.1244C93.8054 55.8324 93.4674 55.4304 93.2354 54.9184C93.0074 54.4024 92.8894 53.8084 92.8814 53.1364C92.8894 52.4524 93.0094 51.8544 93.2414 51.3424C93.4774 50.8264 93.8174 50.4264 94.2614 50.1424C94.7054 49.8584 95.2494 49.7164 95.8934 49.7164C96.5214 49.7164 97.0734 49.8684 97.5494 50.1724C98.0294 50.4724 98.3614 50.8864 98.5454 51.4144L97.8734 51.6604C97.7094 51.2564 97.4514 50.9444 97.0994 50.7244C96.7474 50.5004 96.3434 50.3884 95.8874 50.3884C95.3754 50.3884 94.9534 50.5064 94.6214 50.7424C94.2894 50.9744 94.0414 51.2964 93.8774 51.7084C93.7134 52.1204 93.6274 52.5964 93.6194 53.1364C93.6314 53.9644 93.8254 54.6304 94.2014 55.1344C94.5814 55.6344 95.1434 55.8844 95.8874 55.8844C96.3474 55.8844 96.7454 55.7784 97.0814 55.5664C97.4214 55.3544 97.6814 55.0464 97.8614 54.6424L98.5454 54.8764C98.2934 55.4244 97.9414 55.8424 97.4894 56.1304C97.0374 56.4144 96.5034 56.5564 95.8874 56.5564ZM101.411 56.3764V50.5564H99.0646V49.8964H104.447V50.5564H102.101V56.3764H101.411ZM105.581 56.3764V49.8964H108.155C108.267 49.8964 108.421 49.9044 108.617 49.9204C108.817 49.9324 109.007 49.9624 109.187 50.0104C109.567 50.1064 109.863 50.3064 110.075 50.6104C110.291 50.9144 110.399 51.2684 110.399 51.6724C110.399 51.8884 110.367 52.0884 110.303 52.2724C110.243 52.4524 110.151 52.6124 110.027 52.7524C109.971 52.8204 109.907 52.8824 109.835 52.9384C109.763 52.9904 109.693 53.0324 109.625 53.0644C109.745 53.0884 109.881 53.1504 110.033 53.2504C110.265 53.3944 110.437 53.5844 110.549 53.8204C110.661 54.0564 110.717 54.3284 110.717 54.6364C110.717 55.0804 110.609 55.4404 110.393 55.7164C110.181 55.9924 109.905 56.1784 109.565 56.2744C109.401 56.3224 109.227 56.3524 109.043 56.3644C108.859 56.3724 108.691 56.3764 108.539 56.3764H105.581ZM106.277 55.7524H108.521C108.605 55.7524 108.715 55.7464 108.851 55.7344C108.987 55.7184 109.107 55.6984 109.211 55.6744C109.483 55.6104 109.679 55.4804 109.799 55.2844C109.923 55.0844 109.985 54.8644 109.985 54.6244C109.985 54.3084 109.891 54.0504 109.703 53.8504C109.515 53.6464 109.259 53.5244 108.935 53.4844C108.843 53.4684 108.745 53.4604 108.641 53.4604C108.541 53.4564 108.447 53.4544 108.359 53.4544H106.277V55.7524ZM106.277 52.8244H108.293C108.389 52.8244 108.503 52.8184 108.635 52.8064C108.767 52.7904 108.885 52.7644 108.989 52.7284C109.221 52.6484 109.393 52.5124 109.505 52.3204C109.617 52.1244 109.673 51.9144 109.673 51.6904C109.673 51.4384 109.613 51.2204 109.493 51.0364C109.373 50.8484 109.199 50.7144 108.971 50.6344C108.811 50.5824 108.643 50.5524 108.467 50.5444C108.295 50.5324 108.187 50.5264 108.143 50.5264H106.277V52.8244ZM114.579 56.5564C113.935 56.5564 113.389 56.4104 112.941 56.1184C112.493 55.8264 112.151 55.4224 111.915 54.9064C111.679 54.3904 111.561 53.7964 111.561 53.1244C111.561 52.4484 111.681 51.8544 111.921 51.3424C112.161 50.8264 112.505 50.4264 112.953 50.1424C113.405 49.8584 113.947 49.7164 114.579 49.7164C115.223 49.7164 115.769 49.8624 116.217 50.1544C116.669 50.4424 117.011 50.8424 117.243 51.3544C117.479 51.8664 117.597 52.4564 117.597 53.1244C117.597 53.8084 117.479 54.4084 117.243 54.9244C117.007 55.4364 116.663 55.8364 116.211 56.1244C115.759 56.4124 115.215 56.5564 114.579 56.5564ZM114.579 55.8844C115.343 55.8844 115.913 55.6284 116.289 55.1164C116.669 54.6044 116.859 53.9404 116.859 53.1244C116.859 52.2924 116.669 51.6284 116.289 51.1324C115.909 50.6364 115.339 50.3884 114.579 50.3884C114.063 50.3884 113.637 50.5064 113.301 50.7424C112.965 50.9744 112.713 51.2964 112.545 51.7084C112.381 52.1164 112.299 52.5884 112.299 53.1244C112.299 53.9564 112.491 54.6244 112.875 55.1284C113.263 55.6324 113.831 55.8844 114.579 55.8844ZM121.319 56.3764V49.8964H122.009V52.8004H125.915V49.8964H126.605V56.3764H125.915V53.4724H122.009V56.3764H121.319ZM130.95 56.5564C130.33 56.5564 129.794 56.4184 129.342 56.1424C128.89 55.8624 128.54 55.4684 128.292 54.9604C128.044 54.4484 127.92 53.8444 127.92 53.1484C127.92 52.4404 128.042 51.8304 128.286 51.3184C128.534 50.8024 128.882 50.4064 129.33 50.1304C129.782 49.8544 130.318 49.7164 130.938 49.7164C131.566 49.7164 132.102 49.8604 132.546 50.1484C132.994 50.4324 133.334 50.8444 133.566 51.3844C133.802 51.9244 133.914 52.5744 133.902 53.3344H133.182V53.0944C133.162 52.2064 132.962 51.5304 132.582 51.0664C132.202 50.6024 131.658 50.3704 130.95 50.3704C130.218 50.3704 129.652 50.6124 129.252 51.0964C128.856 51.5764 128.658 52.2564 128.658 53.1364C128.658 54.0084 128.856 54.6844 129.252 55.1644C129.652 55.6444 130.214 55.8844 130.938 55.8844C131.438 55.8844 131.874 55.7684 132.246 55.5364C132.622 55.3004 132.92 54.9644 133.14 54.5284L133.764 54.8044C133.504 55.3644 133.128 55.7964 132.636 56.1004C132.144 56.4044 131.582 56.5564 130.95 56.5564ZM128.394 53.3344V52.7104H133.512V53.3344H128.394ZM134.75 57.8164V55.7464C135.122 55.7464 135.39 55.6284 135.554 55.3924C135.722 55.1564 135.858 54.7864 135.962 54.2824C136.03 53.9464 136.086 53.5824 136.13 53.1904C136.178 52.7984 136.218 52.3384 136.25 51.8104C136.286 51.2824 136.322 50.6444 136.358 49.8964H140.462V55.7464H141.068V57.8164H140.396V56.3764H135.428V57.8164H134.75ZM136.1 55.7464H139.766V50.5264H137.024C137.008 50.8544 136.988 51.2044 136.964 51.5764C136.94 51.9444 136.912 52.3124 136.88 52.6804C136.848 53.0484 136.81 53.3944 136.766 53.7184C136.722 54.0424 136.67 54.3224 136.61 54.5584C136.546 54.8264 136.478 55.0604 136.406 55.2604C136.334 55.4604 136.232 55.6224 136.1 55.7464ZM142.273 56.3764V49.8964H144.847C144.959 49.8964 145.113 49.9044 145.309 49.9204C145.509 49.9324 145.699 49.9624 145.879 50.0104C146.259 50.1064 146.555 50.3064 146.767 50.6104C146.983 50.9144 147.091 51.2684 147.091 51.6724C147.091 51.8884 147.059 52.0884 146.995 52.2724C146.935 52.4524 146.843 52.6124 146.719 52.7524C146.663 52.8204 146.599 52.8824 146.527 52.9384C146.455 52.9904 146.385 53.0324 146.317 53.0644C146.437 53.0884 146.573 53.1504 146.725 53.2504C146.957 53.3944 147.129 53.5844 147.241 53.8204C147.353 54.0564 147.409 54.3284 147.409 54.6364C147.409 55.0804 147.301 55.4404 147.085 55.7164C146.873 55.9924 146.597 56.1784 146.257 56.2744C146.093 56.3224 145.919 56.3524 145.735 56.3644C145.551 56.3724 145.383 56.3764 145.231 56.3764H142.273ZM142.969 55.7524H145.213C145.297 55.7524 145.407 55.7464 145.543 55.7344C145.679 55.7184 145.799 55.6984 145.903 55.6744C146.175 55.6104 146.371 55.4804 146.491 55.2844C146.615 55.0844 146.677 54.8644 146.677 54.6244C146.677 54.3084 146.583 54.0504 146.395 53.8504C146.207 53.6464 145.951 53.5244 145.627 53.4844C145.535 53.4684 145.437 53.4604 145.333 53.4604C145.233 53.4564 145.139 53.4544 145.051 53.4544H142.969V55.7524ZM142.969 52.8244H144.985C145.081 52.8244 145.195 52.8184 145.327 52.8064C145.459 52.7904 145.577 52.7644 145.681 52.7284C145.913 52.6484 146.085 52.5124 146.197 52.3204C146.309 52.1244 146.365 51.9144 146.365 51.6904C146.365 51.4384 146.305 51.2204 146.185 51.0364C146.065 50.8484 145.891 50.7144 145.663 50.6344C145.503 50.5824 145.335 50.5524 145.159 50.5444C144.987 50.5324 144.879 50.5264 144.835 50.5264H142.969V52.8244ZM153.604 49.8964V56.3764H152.926V51.0544L149.218 56.3764H148.612V49.8964H149.29V55.1944L152.998 49.8964H153.604ZM154.56 56.3764L157.416 53.1364L154.668 49.8964H155.46L158.166 53.1184V49.8964H158.826V53.1184L161.532 49.8964H162.33L159.582 53.1364L162.438 56.3764H161.622L158.826 53.1544V56.3764H158.166V53.1544L155.376 56.3764H154.56ZM168.394 49.8964V56.3764H167.716V51.0544L164.008 56.3764H163.402V49.8964H164.08V55.1944L167.788 49.8964H168.394ZM170.069 56.3764V49.8964H170.717L173.315 55.4764L175.907 49.8964H176.561V56.3764H175.877V51.4384L173.591 56.3764H173.033L170.747 51.4384V56.3764H170.069ZM180.895 56.5564C180.251 56.5564 179.705 56.4104 179.257 56.1184C178.809 55.8264 178.467 55.4224 178.231 54.9064C177.995 54.3904 177.877 53.7964 177.877 53.1244C177.877 52.4484 177.997 51.8544 178.237 51.3424C178.477 50.8264 178.821 50.4264 179.269 50.1424C179.721 49.8584 180.263 49.7164 180.895 49.7164C181.539 49.7164 182.085 49.8624 182.533 50.1544C182.985 50.4424 183.327 50.8424 183.559 51.3544C183.795 51.8664 183.913 52.4564 183.913 53.1244C183.913 53.8084 183.795 54.4084 183.559 54.9244C183.323 55.4364 182.979 55.8364 182.527 56.1244C182.075 56.4124 181.531 56.5564 180.895 56.5564ZM180.895 55.8844C181.659 55.8844 182.229 55.6284 182.605 55.1164C182.985 54.6044 183.175 53.9404 183.175 53.1244C183.175 52.2924 182.985 51.6284 182.605 51.1324C182.225 50.6364 181.655 50.3884 180.895 50.3884C180.379 50.3884 179.953 50.5064 179.617 50.7424C179.281 50.9744 179.029 51.2964 178.861 51.7084C178.697 52.1164 178.615 52.5884 178.615 53.1244C178.615 53.9564 178.807 54.6244 179.191 55.1284C179.579 55.6324 180.147 55.8844 180.895 55.8844ZM187.88 56.5564C187.232 56.5564 186.686 56.4124 186.242 56.1244C185.798 55.8324 185.46 55.4304 185.228 54.9184C185 54.4024 184.882 53.8084 184.874 53.1364C184.882 52.4524 185.002 51.8544 185.234 51.3424C185.47 50.8264 185.81 50.4264 186.254 50.1424C186.698 49.8584 187.242 49.7164 187.886 49.7164C188.514 49.7164 189.066 49.8684 189.542 50.1724C190.022 50.4724 190.354 50.8864 190.538 51.4144L189.866 51.6604C189.702 51.2564 189.444 50.9444 189.092 50.7244C188.74 50.5004 188.336 50.3884 187.88 50.3884C187.368 50.3884 186.946 50.5064 186.614 50.7424C186.282 50.9744 186.034 51.2964 185.87 51.7084C185.706 52.1204 185.62 52.5964 185.612 53.1364C185.624 53.9644 185.818 54.6304 186.194 55.1344C186.574 55.6344 187.136 55.8844 187.88 55.8844C188.34 55.8844 188.738 55.7784 189.074 55.5664C189.414 55.3544 189.674 55.0464 189.854 54.6424L190.538 54.8764C190.286 55.4244 189.934 55.8424 189.482 56.1304C189.03 56.4144 188.496 56.5564 187.88 56.5564ZM193.403 56.3764V50.5564H191.057V49.8964H196.439V50.5564H194.093V56.3764H193.403ZM202.565 49.8964V56.3764H201.887V51.0544L198.179 56.3764H197.573V49.8964H198.251V55.1944L201.959 49.8964H202.565Z" fill="white"/>
<path d="M61.6288 38.6322C61.8688 35.7522 62.1088 30.4722 62.1088 22.4562C62.1088 14.9202 61.8208 9.25625 61.5808 6.23225C61.4368 4.21625 59.3728 3.68825 59.3728 3.68825H69.3568C69.3568 3.68825 67.2928 4.64825 67.1968 6.23225H67.1488C66.9088 9.30425 66.6208 15.0162 66.6208 22.4562C66.6208 29.2722 66.8608 34.1202 67.0528 37.1922C69.0208 33.8802 71.8528 28.6962 75.0688 22.0722C80.5888 10.6482 83.2768 4.31225 83.2768 3.73625C83.2768 3.73625 83.2768 3.73625 83.2768 3.68825H91.2928C91.2928 3.68825 89.3728 4.74425 89.0848 6.32825C88.7968 7.86425 88.5568 13.2882 88.5568 19.5282V22.4562C88.6528 30.4242 89.0368 38.6322 89.0368 38.6322C89.1808 40.2162 91.2928 41.4162 91.2928 41.4162H81.2608C81.2608 41.4162 83.3728 40.6482 83.5168 38.6322C83.7568 35.7522 84.0448 30.4722 84.0448 22.4562C84.0448 16.0722 83.8048 11.0322 83.6128 7.76825L67.3888 41.4162V41.4642L59.3248 41.4162C59.3248 41.4162 61.4848 40.6482 61.6288 38.6322ZM100.646 37.8642L117.59 20.9202L103.814 7.04825C101.078 4.50425 98.7741 3.78425 98.7741 3.78425L106.79 3.73625C106.79 3.73625 105.83 4.21625 105.83 5.08025C105.83 5.41625 105.974 5.75225 106.31 6.18425L119.126 19.0482C119.03 13.3842 118.838 9.06425 118.646 6.47225C118.454 4.55225 116.246 3.68825 116.246 3.68825H126.326C126.326 3.68825 124.214 4.88825 124.022 6.52025C123.734 8.92025 123.686 13.6242 123.686 18.7602L136.31 6.08825C136.646 5.65625 136.79 5.32025 136.79 4.98425C136.79 4.12025 135.83 3.64025 135.83 3.64025H143.846C143.846 3.64025 141.542 4.40825 138.806 6.95225L125.03 20.8242L142.022 37.8162C144.662 40.3602 147.542 41.4162 147.542 41.4162H136.358C136.358 41.4162 138.134 40.7442 138.134 39.6882C138.134 39.4002 137.99 39.0642 137.654 38.7282L123.686 24.7602C123.734 31.0482 123.974 35.4642 124.166 38.1522C124.31 39.7842 126.422 41.4162 126.422 41.4162H116.39C116.39 41.4162 118.454 40.1682 118.646 38.2002C118.838 35.5602 119.126 31.2882 119.174 24.6642L105.014 38.8242C104.63 39.2082 104.534 39.5442 104.534 39.8322C104.534 40.8882 106.262 41.4642 106.262 41.4642H95.1261C95.1261 41.4642 98.0541 40.4562 100.646 37.8642ZM153.281 16.1202C153.041 17.3682 152.897 18.8082 152.897 20.3442C152.897 22.0722 153.089 23.8482 153.425 25.5282C154.049 28.4562 155.633 31.7202 156.785 33.5442C159.185 37.2882 163.937 39.9762 168.929 39.9762C169.889 39.9762 170.849 39.8802 171.809 39.6882C177.713 38.3922 182.033 33.3522 182.849 27.9762C183.041 26.9202 183.137 25.4322 183.137 23.8962C183.137 22.3602 182.993 20.6802 182.705 19.2402C182.033 16.0722 180.737 12.8562 178.961 10.5522C176.273 7.09625 171.857 4.64825 167.153 4.64825C166.193 4.64825 165.233 4.74425 164.273 4.93625C158.561 6.18425 154.289 11.0802 153.281 16.1202ZM148.385 26.5362C148.097 25.2402 148.001 23.8962 148.001 22.6482C148.001 12.8082 155.633 4.45625 163.649 2.72825C165.089 2.39225 166.481 2.24825 167.921 2.24825C177.137 2.24825 185.489 8.63225 187.505 17.9922C187.841 19.4322 187.985 20.8722 187.985 22.2642C187.985 31.4802 181.601 39.7842 172.241 41.8002C170.561 42.1842 168.929 42.3282 167.297 42.3282C158.369 42.3282 150.497 36.9042 148.385 26.5362ZM205.173 22.8882L199.077 22.9362V24.8562C199.077 32.8242 199.365 37.8642 199.701 39.9282C199.797 40.8402 201.333 41.4162 201.333 41.4162H192.309C192.309 41.4162 193.845 40.6002 193.989 39.7842C194.181 37.2882 194.565 31.6722 194.565 22.5522C194.565 13.5282 194.229 7.67225 193.893 4.84025C193.797 4.21625 192.309 3.68825 192.309 3.68825H195.813L205.125 3.59225C210.453 3.59225 214.773 7.96025 214.773 13.2882C214.773 18.5682 210.501 22.8882 205.173 22.8882ZM203.637 5.22425H202.533C201.621 5.22425 200.613 5.22425 199.701 5.27225C199.509 7.86425 199.125 13.6242 199.077 21.3522H203.397C207.525 21.3522 210.933 17.3682 210.933 13.2882C210.933 9.16025 207.717 5.41625 203.637 5.22425ZM224.518 21.7362H232.966C231.19 14.0562 229.702 8.87225 228.886 6.13625L224.518 21.7362ZM214.294 41.4162C214.294 41.4162 216.79 40.2162 217.462 38.4402C220.87 29.2722 224.038 18.0402 226.966 5.32025V5.22425C226.966 4.45625 225.238 3.68825 225.238 3.68825H236.374C236.374 3.68825 234.454 4.21625 234.454 5.89625C234.454 5.99225 234.502 6.08825 234.502 6.23225C234.934 9.06425 235.798 14.3922 237.67 22.5522C239.35 30.0402 240.982 35.7042 241.894 38.7762C242.47 40.6962 244.054 41.4162 244.054 41.4162H233.926C233.926 41.4162 236.278 40.3122 236.278 38.7762C236.278 35.7042 234.886 30.2802 233.35 23.3202H224.038L219.766 38.6322C219.718 38.7762 219.718 38.9682 219.718 39.1122C219.718 40.6962 222.07 41.4162 222.07 41.4162H214.294Z" fill="white"/>
</svg>
